# MagicaVoxel @ Ephtracy

# group
o 

# material
mtllib Wall2.mtl
usemtl palette

# normals
vn -1 0 0
vn 1 0 0
vn 0 0 1
vn 0 0 -1
vn 0 -1 0
vn 0 1 0

# texcoords
vt 0.587891 0.5
vt 0.908203 0.5

# verts
v -1 0 0.1
v -1 0 -0.1
v -1 0.2 0.1
v -1 0.2 0
v -1 0.3 0
v -1 0.3 -0.1
v -1 1.3 0.1
v -1 1.3 -0.1
v -0.8 1.3 0.1
v -0.8 1.3 -0.1
v -0.8 1.4 0
v -0.8 1.4 -0.1
v -0.8 1.5 0.1
v -0.8 1.5 0
v -0.8 1.5 -0.1
v -0.4 1.3 0.1
v -0.4 1.3 -0.1
v -0.4 1.5 0.1
v -0.4 1.5 -0.1
v 0 1.3 0.1
v 0 1.3 0
v 0 1.3 -0.1
v 0 1.4 0.1
v 0 1.4 0
v 0 1.5 0.1
v 0 1.5 -0.1
v 0.4 1.3 0.1
v 0.4 1.3 -0.1
v 0.4 1.4 0.1
v 0.4 1.4 -0.1
v 0.4 1.5 0.1
v 0.4 1.5 -0.1
v 0.8 1.3 0.1
v 0.8 1.3 -0.1
v 0.8 1.4 0.1
v 0.8 1.4 -0.1
v 0.8 1.5 0.1
v 0.8 1.5 -0.1
v -0.6 1.3 0.1
v -0.6 1.3 -0.1
v -0.6 1.4 0
v -0.6 1.4 -0.1
v -0.6 1.5 0.1
v -0.6 1.5 0
v -0.6 1.5 -0.1
v -0.2 1.3 0.1
v -0.2 1.3 -0.1
v -0.2 1.5 0.1
v -0.2 1.5 -0.1
v 0.2 1.3 0.1
v 0.2 1.3 0
v 0.2 1.3 -0.1
v 0.2 1.4 0.1
v 0.2 1.4 0
v 0.2 1.5 0.1
v 0.2 1.5 -0.1
v 0.6 1.3 0.1
v 0.6 1.3 -0.1
v 0.6 1.5 0.1
v 0.6 1.5 -0.1
v 1 0 0.1
v 1 0 -0.1
v 1 0.2 0.1
v 1 0.2 -0.1
v 1 1.5 0.1
v 1 1.5 -0.1
v -1 0 0.1
v -1 0.2 0.1
v -1 1.3 0.1
v -0.9 0.2 0.1
v -0.9 0.3 0.1
v -0.8 0.3 0.1
v -0.8 0.4 0.1
v -0.8 1.2 0.1
v -0.8 1.3 0.1
v -0.8 1.5 0.1
v -0.7 0.4 0.1
v -0.7 0.6 0.1
v -0.7 1.2 0.1
v -0.7 1.5 0.1
v -0.6 1.3 0.1
v -0.6 1.5 0.1
v -0.5 0.5 0.1
v -0.5 0.6 0.1
v -0.4 0.4 0.1
v -0.4 0.5 0.1
v -0.4 1.3 0.1
v -0.4 1.5 0.1
v -0.2 0.4 0.1
v -0.2 0.5 0.1
v -0.2 1.3 0.1
v -0.2 1.5 0.1
v -0.1 0.5 0.1
v -0.1 0.6 0.1
v -0.1 1.2 0.1
v -0.1 1.3 0.1
v 0 0.6 0.1
v 0 0.7 0.1
v 0 1 0.1
v 0 1.2 0.1
v 0 1.3 0.1
v 0 1.4 0.1
v 0 1.5 0.1
v 0.1 0.6 0.1
v 0.1 0.7 0.1
v 0.1 1 0.1
v 0.1 1.2 0.1
v 0.1 1.3 0.1
v 0.1 1.4 0.1
v 0.1 1.5 0.1
v 0.2 0.5 0.1
v 0.2 0.6 0.1
v 0.2 1.3 0.1
v 0.2 1.4 0.1
v 0.2 1.5 0.1
v 0.3 0.4 0.1
v 0.3 0.5 0.1
v 0.3 1.2 0.1
v 0.3 1.3 0.1
v 0.4 0.4 0.1
v 0.4 0.5 0.1
v 0.4 1.2 0.1
v 0.4 1.3 0.1
v 0.4 1.4 0.1
v 0.4 1.5 0.1
v 0.5 0.5 0.1
v 0.5 0.6 0.1
v 0.5 1.3 0.1
v 0.5 1.4 0.1
v 0.6 0.5 0.1
v 0.6 0.6 0.1
v 0.6 1.3 0.1
v 0.6 1.5 0.1
v 0.7 0.4 0.1
v 0.7 0.5 0.1
v 0.7 1.1 0.1
v 0.7 1.2 0.1
v 0.8 0.3 0.1
v 0.8 0.4 0.1
v 0.8 0.9 0.1
v 0.8 1.1 0.1
v 0.8 1.2 0.1
v 0.8 1.3 0.1
v 0.8 1.4 0.1
v 0.8 1.5 0.1
v 0.9 0.2 0.1
v 0.9 0.3 0.1
v 0.9 0.9 0.1
v 0.9 1.1 0.1
v 0.9 1.2 0.1
v 0.9 1.3 0.1
v 0.9 1.4 0.1
v 0.9 1.5 0.1
v 1 0 0.1
v 1 0.2 0.1
v 1 1.5 0.1
v -1 0 -0.1
v -1 0.3 -0.1
v -1 1.3 -0.1
v -0.9 0.3 -0.1
v -0.9 0.4 -0.1
v -0.8 0.4 -0.1
v -0.8 0.6 -0.1
v -0.8 1.3 -0.1
v -0.8 1.4 -0.1
v -0.8 1.5 -0.1
v -0.7 0.6 -0.1
v -0.7 0.7 -0.1
v -0.7 1.3 -0.1
v -0.7 1.4 -0.1
v -0.7 1.5 -0.1
v -0.6 0.6 -0.1
v -0.6 0.7 -0.1
v -0.6 1.3 -0.1
v -0.6 1.4 -0.1
v -0.6 1.5 -0.1
v -0.5 0.4 -0.1
v -0.5 0.6 -0.1
v -0.4 0.3 -0.1
v -0.4 0.4 -0.1
v -0.4 1.3 -0.1
v -0.4 1.5 -0.1
v -0.3 0.3 -0.1
v -0.3 0.4 -0.1
v -0.2 0.4 -0.1
v -0.2 0.5 -0.1
v -0.2 1.3 -0.1
v -0.2 1.5 -0.1
v -0.1 0.5 -0.1
v -0.1 0.6 -0.1
v 0 0.6 -0.1
v 0 0.7 -0.1
v 0 1.3 -0.1
v 0 1.5 -0.1
v 0.1 0.6 -0.1
v 0.1 0.7 -0.1
v 0.1 1.3 -0.1
v 0.1 1.5 -0.1
v 0.2 0.4 -0.1
v 0.2 0.6 -0.1
v 0.2 1.3 -0.1
v 0.2 1.5 -0.1
v 0.3 1 -0.1
v 0.3 1.1 -0.1
v 0.3 1.2 -0.1
v 0.3 1.3 -0.1
v 0.4 0.4 -0.1
v 0.4 0.5 -0.1
v 0.4 1 -0.1
v 0.4 1.1 -0.1
v 0.4 1.2 -0.1
v 0.4 1.3 -0.1
v 0.4 1.4 -0.1
v 0.4 1.5 -0.1
v 0.5 0.5 -0.1
v 0.5 0.6 -0.1
v 0.5 1.1 -0.1
v 0.5 1.2 -0.1
v 0.5 1.3 -0.1
v 0.5 1.4 -0.1
v 0.6 0.5 -0.1
v 0.6 0.6 -0.1
v 0.6 1.3 -0.1
v 0.6 1.5 -0.1
v 0.7 0.4 -0.1
v 0.7 0.5 -0.1
v 0.8 0.3 -0.1
v 0.8 0.4 -0.1
v 0.8 1.3 -0.1
v 0.8 1.4 -0.1
v 0.8 1.5 -0.1
v 0.9 0.2 -0.1
v 0.9 0.3 -0.1
v 0.9 1.4 -0.1
v 0.9 1.5 -0.1
v 1 0 -0.1
v 1 0.2 -0.1
v 1 1.5 -0.1
v -1 0 0.1
v 1 0 0.1
v -1 0 -0.1
v 1 0 -0.1
v -1 1.3 0.1
v -0.8 1.3 0.1
v -0.6 1.3 0.1
v -0.4 1.3 0.1
v -0.2 1.3 0.1
v -0.1 1.3 0.1
v 0 1.3 0.1
v 0.2 1.3 0.1
v 0.3 1.3 0.1
v 0.4 1.3 0.1
v 0.6 1.3 0.1
v 0.8 1.3 0.1
v -0.1 1.3 0
v 0 1.3 0
v 0.2 1.3 0
v -1 1.3 -0.1
v -0.8 1.3 -0.1
v -0.6 1.3 -0.1
v -0.4 1.3 -0.1
v -0.2 1.3 -0.1
v 0 1.3 -0.1
v 0.2 1.3 -0.1
v 0.3 1.3 -0.1
v 0.4 1.3 -0.1
v 0.6 1.3 -0.1
v 0.8 1.3 -0.1
v -0.8 1.5 0.1
v -0.7 1.5 0.1
v -0.6 1.5 0.1
v -0.4 1.5 0.1
v -0.2 1.5 0.1
v 0 1.5 0.1
v 0.1 1.5 0.1
v 0.2 1.5 0.1
v 0.4 1.5 0.1
v 0.6 1.5 0.1
v 0.8 1.5 0.1
v 0.9 1.5 0.1
v 1 1.5 0.1
v -0.8 1.5 0
v -0.7 1.5 0
v -0.6 1.5 0
v -0.8 1.5 -0.1
v -0.7 1.5 -0.1
v -0.6 1.5 -0.1
v -0.4 1.5 -0.1
v -0.2 1.5 -0.1
v 0 1.5 -0.1
v 0.1 1.5 -0.1
v 0.2 1.5 -0.1
v 0.4 1.5 -0.1
v 0.6 1.5 -0.1
v 0.8 1.5 -0.1
v 0.9 1.5 -0.1
v 1 1.5 -0.1

# faces
f 3/2/1 2/2/1 1/2/1
f 4/2/1 2/2/1 3/2/1
f 5/1/1 4/1/1 3/1/1
f 5/2/1 2/2/1 4/2/1
f 6/2/1 2/2/1 5/2/1
f 7/1/1 5/1/1 3/1/1
f 7/1/1 6/1/1 5/1/1
f 8/1/1 6/1/1 7/1/1
f 11/2/1 10/2/1 9/2/1
f 12/2/1 10/2/1 11/2/1
f 13/2/1 11/2/1 9/2/1
f 14/1/1 12/1/1 11/1/1
f 14/2/1 11/2/1 13/2/1
f 15/1/1 12/1/1 14/1/1
f 18/1/1 17/1/1 16/1/1
f 19/1/1 17/1/1 18/1/1
f 23/2/1 21/2/1 20/2/1
f 24/1/1 22/1/1 21/1/1
f 24/2/1 21/2/1 23/2/1
f 25/1/1 24/1/1 23/1/1
f 26/1/1 22/1/1 24/1/1
f 26/1/1 24/1/1 25/1/1
f 29/2/1 28/2/1 27/2/1
f 30/2/1 28/2/1 29/2/1
f 31/1/1 30/1/1 29/1/1
f 32/1/1 30/1/1 31/1/1
f 35/1/1 34/1/1 33/1/1
f 36/1/1 34/1/1 35/1/1
f 37/2/1 36/2/1 35/2/1
f 38/2/1 36/2/1 37/2/1
f 39/1/2 40/1/2 41/1/2
f 41/1/2 40/1/2 42/1/2
f 39/1/2 41/1/2 43/1/2
f 41/2/2 42/2/2 44/2/2
f 43/1/2 41/1/2 44/1/2
f 44/2/2 42/2/2 45/2/2
f 46/1/2 47/1/2 48/1/2
f 48/1/2 47/1/2 49/1/2
f 50/1/2 51/1/2 53/1/2
f 51/2/2 52/2/2 54/2/2
f 53/1/2 51/1/2 54/1/2
f 53/2/2 54/2/2 55/2/2
f 54/2/2 52/2/2 56/2/2
f 55/2/2 54/2/2 56/2/2
f 57/1/2 58/1/2 59/1/2
f 59/1/2 58/1/2 60/1/2
f 61/2/2 62/2/2 63/2/2
f 63/2/2 62/2/2 64/2/2
f 63/1/2 64/1/2 65/1/2
f 65/1/2 64/1/2 66/1/2
f 70/2/3 68/2/3 67/2/3
f 70/1/3 69/1/3 68/1/3
f 71/1/3 69/1/3 70/1/3
f 72/2/3 71/2/3 70/2/3
f 72/1/3 69/1/3 71/1/3
f 73/1/3 69/1/3 72/1/3
f 74/1/3 69/1/3 73/1/3
f 75/1/3 69/1/3 74/1/3
f 77/2/3 73/2/3 72/2/3
f 77/1/3 74/1/3 73/1/3
f 78/1/3 74/1/3 77/1/3
f 79/2/3 76/2/3 75/2/3
f 79/1/3 74/1/3 78/1/3
f 79/2/3 75/2/3 74/2/3
f 80/2/3 76/2/3 79/2/3
f 81/1/3 79/1/3 78/1/3
f 81/1/3 80/1/3 79/1/3
f 82/1/3 80/1/3 81/1/3
f 83/2/3 78/2/3 77/2/3
f 84/1/3 81/1/3 78/1/3
f 84/2/3 78/2/3 83/2/3
f 85/2/3 77/2/3 72/2/3
f 85/2/3 83/2/3 77/2/3
f 86/1/3 84/1/3 83/1/3
f 86/2/3 83/2/3 85/2/3
f 87/1/3 81/1/3 84/1/3
f 87/1/3 84/1/3 86/1/3
f 89/1/3 86/1/3 85/1/3
f 89/1/3 88/1/3 87/1/3
f 89/1/3 87/1/3 86/1/3
f 89/2/3 85/2/3 72/2/3
f 90/1/3 88/1/3 89/1/3
f 91/1/3 88/1/3 90/1/3
f 92/1/3 88/1/3 91/1/3
f 93/2/3 90/2/3 89/2/3
f 93/1/3 91/1/3 90/1/3
f 94/1/3 91/1/3 93/1/3
f 95/1/3 91/1/3 94/1/3
f 96/1/3 91/1/3 95/1/3
f 97/2/3 94/2/3 93/2/3
f 97/1/3 95/1/3 94/1/3
f 98/1/3 95/1/3 97/1/3
f 99/1/3 95/1/3 98/1/3
f 100/2/3 96/2/3 95/2/3
f 100/1/3 95/1/3 99/1/3
f 101/2/3 96/2/3 100/2/3
f 104/2/3 97/2/3 93/2/3
f 104/2/3 98/2/3 97/2/3
f 105/1/3 99/1/3 98/1/3
f 105/2/3 98/2/3 104/2/3
f 106/2/3 100/2/3 99/2/3
f 106/1/3 99/1/3 105/1/3
f 107/1/3 101/1/3 100/1/3
f 107/2/3 100/2/3 106/2/3
f 108/2/3 102/2/3 101/2/3
f 108/1/3 101/1/3 107/1/3
f 109/1/3 103/1/3 102/1/3
f 109/2/3 102/2/3 108/2/3
f 110/1/3 103/1/3 109/1/3
f 111/2/3 93/2/3 89/2/3
f 111/2/3 104/2/3 93/2/3
f 112/1/3 106/1/3 105/1/3
f 112/2/3 104/2/3 111/2/3
f 112/1/3 108/1/3 107/1/3
f 112/1/3 109/1/3 108/1/3
f 112/1/3 105/1/3 104/1/3
f 112/1/3 107/1/3 106/1/3
f 113/1/3 109/1/3 112/1/3
f 114/2/3 110/2/3 109/2/3
f 114/1/3 109/1/3 113/1/3
f 115/2/3 110/2/3 114/2/3
f 116/2/3 89/2/3 72/2/3
f 116/2/3 111/2/3 89/2/3
f 117/1/3 112/1/3 111/1/3
f 117/2/3 111/2/3 116/2/3
f 117/1/3 113/1/3 112/1/3
f 118/1/3 113/1/3 117/1/3
f 119/1/3 113/1/3 118/1/3
f 120/2/3 116/2/3 72/2/3
f 120/1/3 117/1/3 116/1/3
f 120/1/3 118/1/3 117/1/3
f 121/1/3 118/1/3 120/1/3
f 122/2/3 119/2/3 118/2/3
f 122/1/3 118/1/3 121/1/3
f 123/2/3 119/2/3 122/2/3
f 126/1/3 123/1/3 122/1/3
f 126/2/3 121/2/3 120/2/3
f 126/1/3 122/1/3 121/1/3
f 127/1/3 123/1/3 126/1/3
f 128/2/3 124/2/3 123/2/3
f 128/1/3 123/1/3 127/1/3
f 129/1/3 125/1/3 124/1/3
f 129/2/3 124/2/3 128/2/3
f 130/2/3 127/2/3 126/2/3
f 130/2/3 126/2/3 120/2/3
f 131/1/3 128/1/3 127/1/3
f 131/2/3 127/2/3 130/2/3
f 131/1/3 129/1/3 128/1/3
f 132/1/3 129/1/3 131/1/3
f 133/1/3 125/1/3 129/1/3
f 133/1/3 129/1/3 132/1/3
f 134/2/3 130/2/3 120/2/3
f 134/2/3 120/2/3 72/2/3
f 135/1/3 132/1/3 131/1/3
f 135/2/3 130/2/3 134/2/3
f 135/1/3 131/1/3 130/1/3
f 136/1/3 132/1/3 135/1/3
f 137/1/3 132/1/3 136/1/3
f 138/2/3 72/2/3 70/2/3
f 138/2/3 134/2/3 72/2/3
f 139/1/3 135/1/3 134/1/3
f 139/2/3 134/2/3 138/2/3
f 139/1/3 136/1/3 135/1/3
f 140/1/3 136/1/3 139/1/3
f 141/2/3 137/2/3 136/2/3
f 141/1/3 136/1/3 140/1/3
f 142/1/3 132/1/3 137/1/3
f 142/2/3 137/2/3 141/2/3
f 143/1/3 132/1/3 142/1/3
f 146/2/3 70/2/3 67/2/3
f 146/2/3 138/2/3 70/2/3
f 147/1/3 140/1/3 139/1/3
f 147/2/3 138/2/3 146/2/3
f 147/1/3 139/1/3 138/1/3
f 148/2/3 141/2/3 140/2/3
f 148/1/3 140/1/3 147/1/3
f 149/1/3 142/1/3 141/1/3
f 149/2/3 141/2/3 148/2/3
f 150/2/3 143/2/3 142/2/3
f 150/1/3 142/1/3 149/1/3
f 151/1/3 144/1/3 143/1/3
f 151/2/3 143/2/3 150/2/3
f 152/2/3 145/2/3 144/2/3
f 152/1/3 144/1/3 151/1/3
f 153/2/3 145/2/3 152/2/3
f 154/2/3 146/2/3 67/2/3
f 155/1/3 151/1/3 150/1/3
f 155/2/3 146/2/3 154/2/3
f 155/1/3 147/1/3 146/1/3
f 155/1/3 153/1/3 152/1/3
f 155/1/3 152/1/3 151/1/3
f 155/1/3 148/1/3 147/1/3
f 155/1/3 149/1/3 148/1/3
f 155/1/3 150/1/3 149/1/3
f 156/1/3 153/1/3 155/1/3
f 157/2/4 158/2/4 160/2/4
f 158/1/4 159/1/4 160/1/4
f 160/1/4 159/1/4 161/1/4
f 160/2/4 161/2/4 162/2/4
f 161/1/4 159/1/4 162/1/4
f 162/1/4 159/1/4 163/1/4
f 163/1/4 159/1/4 164/1/4
f 162/2/4 163/2/4 167/2/4
f 163/1/4 164/1/4 167/1/4
f 167/1/4 164/1/4 168/1/4
f 164/2/4 165/2/4 169/2/4
f 168/1/4 164/1/4 169/1/4
f 165/1/4 166/1/4 170/1/4
f 169/2/4 165/2/4 170/2/4
f 170/1/4 166/1/4 171/1/4
f 167/2/4 168/2/4 172/2/4
f 162/2/4 167/2/4 172/2/4
f 168/1/4 169/1/4 173/1/4
f 172/2/4 168/2/4 173/2/4
f 169/1/4 170/1/4 173/1/4
f 173/1/4 170/1/4 174/1/4
f 170/2/4 171/2/4 175/2/4
f 174/1/4 170/1/4 175/1/4
f 175/2/4 171/2/4 176/2/4
f 160/2/4 162/2/4 177/2/4
f 162/2/4 172/2/4 177/2/4
f 172/1/4 173/1/4 178/1/4
f 177/2/4 172/2/4 178/2/4
f 173/1/4 174/1/4 178/1/4
f 157/2/4 160/2/4 179/2/4
f 160/2/4 177/2/4 179/2/4
f 177/1/4 178/1/4 180/1/4
f 179/2/4 177/2/4 180/2/4
f 178/1/4 174/1/4 181/1/4
f 180/1/4 178/1/4 181/1/4
f 179/1/4 180/1/4 183/1/4
f 181/1/4 182/1/4 183/1/4
f 180/1/4 181/1/4 183/1/4
f 157/2/4 179/2/4 183/2/4
f 183/1/4 182/1/4 184/1/4
f 183/2/4 184/2/4 185/2/4
f 184/1/4 182/1/4 185/1/4
f 185/1/4 182/1/4 186/1/4
f 186/1/4 182/1/4 187/1/4
f 187/1/4 182/1/4 188/1/4
f 185/2/4 186/2/4 189/2/4
f 186/1/4 187/1/4 189/1/4
f 189/1/4 187/1/4 190/1/4
f 189/2/4 190/2/4 191/2/4
f 190/1/4 187/1/4 191/1/4
f 191/1/4 187/1/4 192/1/4
f 192/1/4 187/1/4 193/1/4
f 189/2/4 191/2/4 195/2/4
f 191/2/4 192/2/4 195/2/4
f 193/1/4 194/1/4 196/1/4
f 195/2/4 192/2/4 196/2/4
f 192/1/4 193/1/4 196/1/4
f 196/1/4 194/1/4 197/1/4
f 197/1/4 194/1/4 198/1/4
f 183/2/4 185/2/4 199/2/4
f 185/2/4 189/2/4 199/2/4
f 189/2/4 195/2/4 199/2/4
f 196/1/4 197/1/4 200/1/4
f 199/2/4 195/2/4 200/2/4
f 195/1/4 196/1/4 200/1/4
f 197/2/4 198/2/4 201/2/4
f 200/1/4 197/1/4 201/1/4
f 201/2/4 198/2/4 202/2/4
f 199/1/4 200/1/4 203/1/4
f 200/1/4 201/1/4 203/1/4
f 203/1/4 201/1/4 204/1/4
f 204/1/4 201/1/4 205/1/4
f 205/1/4 201/1/4 206/1/4
f 183/2/4 199/2/4 207/2/4
f 199/1/4 203/1/4 207/1/4
f 207/1/4 203/1/4 208/1/4
f 203/2/4 204/2/4 209/2/4
f 208/1/4 203/1/4 209/1/4
f 204/1/4 205/1/4 210/1/4
f 209/2/4 204/2/4 210/2/4
f 205/2/4 206/2/4 211/2/4
f 210/1/4 205/1/4 211/1/4
f 211/2/4 206/2/4 212/2/4
f 209/1/4 210/1/4 215/1/4
f 207/2/4 208/2/4 215/2/4
f 208/1/4 209/1/4 215/1/4
f 215/1/4 210/1/4 216/1/4
f 210/2/4 211/2/4 217/2/4
f 216/1/4 210/1/4 217/1/4
f 211/1/4 212/1/4 218/1/4
f 217/2/4 211/2/4 218/2/4
f 212/2/4 213/2/4 219/2/4
f 218/1/4 212/1/4 219/1/4
f 213/1/4 214/1/4 220/1/4
f 219/2/4 213/2/4 220/2/4
f 215/2/4 216/2/4 221/2/4
f 207/2/4 215/2/4 221/2/4
f 216/1/4 217/1/4 222/1/4
f 221/2/4 216/2/4 222/2/4
f 218/1/4 219/1/4 222/1/4
f 219/1/4 220/1/4 222/1/4
f 217/1/4 218/1/4 222/1/4
f 222/1/4 220/1/4 223/1/4
f 220/1/4 214/1/4 224/1/4
f 223/1/4 220/1/4 224/1/4
f 207/2/4 221/2/4 225/2/4
f 183/2/4 207/2/4 225/2/4
f 221/1/4 222/1/4 226/1/4
f 225/2/4 221/2/4 226/2/4
f 222/1/4 223/1/4 226/1/4
f 157/2/4 183/2/4 227/2/4
f 183/2/4 225/2/4 227/2/4
f 225/1/4 226/1/4 228/1/4
f 227/2/4 225/2/4 228/2/4
f 226/1/4 223/1/4 229/1/4
f 228/1/4 226/1/4 229/1/4
f 157/2/4 227/2/4 232/2/4
f 227/1/4 228/1/4 233/1/4
f 232/2/4 227/2/4 233/2/4
f 228/1/4 229/1/4 233/1/4
f 229/1/4 230/1/4 233/1/4
f 230/2/4 231/2/4 234/2/4
f 233/1/4 230/1/4 234/1/4
f 234/2/4 231/2/4 235/2/4
f 157/2/4 232/2/4 236/2/4
f 232/1/4 233/1/4 237/1/4
f 236/2/4 232/2/4 237/2/4
f 233/1/4 234/1/4 237/1/4
f 234/1/4 235/1/4 237/1/4
f 237/1/4 235/1/4 238/1/4
f 241/2/5 240/2/5 239/2/5
f 242/2/5 240/2/5 241/2/5
f 247/1/6 248/1/6 255/1/6
f 248/2/6 249/2/6 255/2/6
f 255/2/6 249/2/6 256/2/6
f 250/1/6 251/1/6 257/1/6
f 243/1/6 244/1/6 258/1/6
f 258/1/6 244/1/6 259/1/6
f 245/1/6 246/1/6 260/1/6
f 260/1/6 246/1/6 261/1/6
f 255/1/6 256/1/6 262/1/6
f 247/1/6 255/1/6 262/1/6
f 262/1/6 256/1/6 263/1/6
f 257/1/6 251/1/6 264/1/6
f 251/2/6 252/2/6 265/2/6
f 264/1/6 251/1/6 265/1/6
f 265/2/6 252/2/6 266/2/6
f 253/1/6 254/1/6 267/1/6
f 267/1/6 254/1/6 268/1/6
f 269/2/6 270/2/6 282/2/6
f 270/1/6 271/1/6 283/1/6
f 282/2/6 270/2/6 283/2/6
f 283/1/6 271/1/6 284/1/6
f 282/1/6 283/1/6 285/1/6
f 283/2/6 284/2/6 286/2/6
f 285/1/6 283/1/6 286/1/6
f 286/2/6 284/2/6 287/2/6
f 272/1/6 273/1/6 288/1/6
f 288/1/6 273/1/6 289/1/6
f 274/1/6 275/1/6 290/1/6
f 275/2/6 276/2/6 291/2/6
f 290/1/6 275/1/6 291/1/6
f 291/2/6 276/2/6 292/2/6
f 277/1/6 278/1/6 293/1/6
f 293/1/6 278/1/6 294/1/6
f 279/2/6 280/2/6 295/2/6
f 280/1/6 281/1/6 296/1/6
f 295/2/6 280/2/6 296/2/6
f 296/1/6 281/1/6 297/1/6
